<mxfile host="app.diagrams.net" agent="Mozilla/5.0 (Windows NT 10.0; Win64; x64; rv:137.0) Gecko/20100101 Firefox/137.0" version="26.2.13">
  <diagram name="Страница — 1" id="7ybIuK3D6NP_7qEA3JT4">
    <mxGraphModel dx="2567" dy="2177" grid="1" gridSize="10" guides="1" tooltips="1" connect="1" arrows="1" fold="1" page="1" pageScale="1" pageWidth="827" pageHeight="1169" math="0" shadow="0">
      <root>
        <mxCell id="0" />
        <mxCell id="1" parent="0" />
        <mxCell id="4ffHu6OWOmxB4uczi7nU-6" style="edgeStyle=orthogonalEdgeStyle;rounded=0;orthogonalLoop=1;jettySize=auto;html=1;exitX=0.5;exitY=1;exitDx=0;exitDy=0;entryX=0.5;entryY=0;entryDx=0;entryDy=0;" edge="1" parent="1" source="4ffHu6OWOmxB4uczi7nU-4">
          <mxGeometry relative="1" as="geometry">
            <mxPoint x="500" y="-130" as="targetPoint" />
          </mxGeometry>
        </mxCell>
        <mxCell id="4ffHu6OWOmxB4uczi7nU-4" value="Клиент добавлен " style="rounded=0;whiteSpace=wrap;html=1;" vertex="1" parent="1">
          <mxGeometry x="440" y="-230" width="120" height="60" as="geometry" />
        </mxCell>
        <mxCell id="4ffHu6OWOmxB4uczi7nU-8" style="edgeStyle=orthogonalEdgeStyle;rounded=0;orthogonalLoop=1;jettySize=auto;html=1;exitX=0.5;exitY=1;exitDx=0;exitDy=0;entryX=0.585;entryY=0.067;entryDx=0;entryDy=0;entryPerimeter=0;" edge="1" parent="1">
          <mxGeometry relative="1" as="geometry">
            <mxPoint x="500" y="-70" as="sourcePoint" />
            <mxPoint x="500.20000000000005" y="-35.98000000000002" as="targetPoint" />
          </mxGeometry>
        </mxCell>
        <mxCell id="4ffHu6OWOmxB4uczi7nU-10" value="Контакты клиента добавлены " style="rounded=0;whiteSpace=wrap;html=1;" vertex="1" parent="1">
          <mxGeometry x="440" y="-130" width="120" height="60" as="geometry" />
        </mxCell>
        <mxCell id="4ffHu6OWOmxB4uczi7nU-16" value="" style="endArrow=none;dashed=1;html=1;dashPattern=1 3;strokeWidth=2;rounded=0;entryX=0.5;entryY=1;entryDx=0;entryDy=0;" edge="1" parent="1" target="4ffHu6OWOmxB4uczi7nU-17">
          <mxGeometry width="50" height="50" relative="1" as="geometry">
            <mxPoint x="560" y="-200" as="sourcePoint" />
            <mxPoint x="610" y="-200" as="targetPoint" />
          </mxGeometry>
        </mxCell>
        <mxCell id="4ffHu6OWOmxB4uczi7nU-17" value="" style="shape=partialRectangle;whiteSpace=wrap;html=1;bottom=1;right=1;left=1;top=0;fillColor=none;routingCenterX=-0.5;rotation=90;" vertex="1" parent="1">
          <mxGeometry x="600" y="-210" width="60" height="20" as="geometry" />
        </mxCell>
        <mxCell id="4ffHu6OWOmxB4uczi7nU-21" value="" style="endArrow=none;dashed=1;html=1;dashPattern=1 3;strokeWidth=2;rounded=0;entryX=0.5;entryY=1;entryDx=0;entryDy=0;" edge="1" parent="1" target="4ffHu6OWOmxB4uczi7nU-22">
          <mxGeometry width="50" height="50" relative="1" as="geometry">
            <mxPoint x="10" y="-210" as="sourcePoint" />
            <mxPoint x="60" y="-210" as="targetPoint" />
          </mxGeometry>
        </mxCell>
        <mxCell id="4ffHu6OWOmxB4uczi7nU-22" value="" style="shape=partialRectangle;whiteSpace=wrap;html=1;bottom=1;right=1;left=1;top=0;fillColor=none;routingCenterX=-0.5;rotation=90;" vertex="1" parent="1">
          <mxGeometry x="50" y="-220" width="60" height="20" as="geometry" />
        </mxCell>
        <mxCell id="4ffHu6OWOmxB4uczi7nU-23" value="История покупок пуста" style="text;html=1;align=center;verticalAlign=middle;resizable=0;points=[];autosize=1;strokeColor=none;fillColor=none;" vertex="1" parent="1">
          <mxGeometry x="620" y="-215" width="150" height="30" as="geometry" />
        </mxCell>
        <mxCell id="4ffHu6OWOmxB4uczi7nU-56" style="edgeStyle=orthogonalEdgeStyle;rounded=0;orthogonalLoop=1;jettySize=auto;html=1;exitX=0.5;exitY=1;exitDx=0;exitDy=0;entryX=0.5;entryY=0;entryDx=0;entryDy=0;" edge="1" parent="1" source="4ffHu6OWOmxB4uczi7nU-24" target="4ffHu6OWOmxB4uczi7nU-30">
          <mxGeometry relative="1" as="geometry" />
        </mxCell>
        <mxCell id="4ffHu6OWOmxB4uczi7nU-24" value="Чек добавлен" style="rounded=0;whiteSpace=wrap;html=1;" vertex="1" parent="1">
          <mxGeometry x="440" y="-30" width="120" height="60" as="geometry" />
        </mxCell>
        <mxCell id="4ffHu6OWOmxB4uczi7nU-25" value="" style="endArrow=none;dashed=1;html=1;dashPattern=1 3;strokeWidth=2;rounded=0;entryX=0.5;entryY=1;entryDx=0;entryDy=0;" edge="1" parent="1" target="4ffHu6OWOmxB4uczi7nU-26">
          <mxGeometry width="50" height="50" relative="1" as="geometry">
            <mxPoint x="560" as="sourcePoint" />
            <mxPoint x="610" as="targetPoint" />
          </mxGeometry>
        </mxCell>
        <mxCell id="4ffHu6OWOmxB4uczi7nU-26" value="" style="shape=partialRectangle;whiteSpace=wrap;html=1;bottom=1;right=1;left=1;top=0;fillColor=none;routingCenterX=-0.5;rotation=90;" vertex="1" parent="1">
          <mxGeometry x="600" y="-10" width="60" height="20" as="geometry" />
        </mxCell>
        <mxCell id="4ffHu6OWOmxB4uczi7nU-27" value="&lt;div&gt;FK: id клиента&lt;/div&gt;&lt;div&gt;Сумма с НДС - пусто&lt;/div&gt;&lt;div&gt;Кол-во товаров - пусто&lt;/div&gt;&lt;div&gt;FK: номер отчета - пустой&lt;/div&gt;" style="text;html=1;align=center;verticalAlign=middle;resizable=0;points=[];autosize=1;strokeColor=none;fillColor=none;" vertex="1" parent="1">
          <mxGeometry x="610" y="-40" width="170" height="70" as="geometry" />
        </mxCell>
        <mxCell id="4ffHu6OWOmxB4uczi7nU-57" style="edgeStyle=orthogonalEdgeStyle;rounded=0;orthogonalLoop=1;jettySize=auto;html=1;exitX=0.5;exitY=1;exitDx=0;exitDy=0;entryX=0.5;entryY=0;entryDx=0;entryDy=0;" edge="1" parent="1" source="4ffHu6OWOmxB4uczi7nU-30" target="4ffHu6OWOmxB4uczi7nU-33">
          <mxGeometry relative="1" as="geometry" />
        </mxCell>
        <mxCell id="4ffHu6OWOmxB4uczi7nU-30" value="&lt;div&gt;Запись номера&lt;/div&gt;&lt;div&gt;&amp;nbsp;чека в покупаемый &lt;br&gt;&lt;b&gt;товар&lt;/b&gt;&lt;/div&gt;" style="shape=parallelogram;perimeter=parallelogramPerimeter;whiteSpace=wrap;html=1;fixedSize=1;" vertex="1" parent="1">
          <mxGeometry x="440" y="70" width="120" height="60" as="geometry" />
        </mxCell>
        <mxCell id="4ffHu6OWOmxB4uczi7nU-59" style="edgeStyle=orthogonalEdgeStyle;rounded=0;orthogonalLoop=1;jettySize=auto;html=1;exitX=0.5;exitY=1;exitDx=0;exitDy=0;entryX=0.5;entryY=0;entryDx=0;entryDy=0;" edge="1" parent="1" source="4ffHu6OWOmxB4uczi7nU-33" target="4ffHu6OWOmxB4uczi7nU-58">
          <mxGeometry relative="1" as="geometry" />
        </mxCell>
        <mxCell id="4ffHu6OWOmxB4uczi7nU-125" style="edgeStyle=orthogonalEdgeStyle;rounded=0;orthogonalLoop=1;jettySize=auto;html=1;exitX=0.5;exitY=1;exitDx=0;exitDy=0;entryX=0.5;entryY=0;entryDx=0;entryDy=0;" edge="1" parent="1" source="4ffHu6OWOmxB4uczi7nU-33" target="4ffHu6OWOmxB4uczi7nU-61">
          <mxGeometry relative="1" as="geometry" />
        </mxCell>
        <mxCell id="4ffHu6OWOmxB4uczi7nU-127" style="edgeStyle=orthogonalEdgeStyle;rounded=0;orthogonalLoop=1;jettySize=auto;html=1;exitX=0.5;exitY=1;exitDx=0;exitDy=0;entryX=0.5;entryY=0;entryDx=0;entryDy=0;" edge="1" parent="1" source="4ffHu6OWOmxB4uczi7nU-33" target="4ffHu6OWOmxB4uczi7nU-85">
          <mxGeometry relative="1" as="geometry">
            <Array as="points">
              <mxPoint x="500" y="240" />
              <mxPoint x="640" y="240" />
            </Array>
          </mxGeometry>
        </mxCell>
        <mxCell id="4ffHu6OWOmxB4uczi7nU-33" value="&lt;div&gt;Изменение статуса&lt;/div&gt;статуса &lt;b&gt;товара&lt;/b&gt;" style="shape=parallelogram;perimeter=parallelogramPerimeter;whiteSpace=wrap;html=1;fixedSize=1;" vertex="1" parent="1">
          <mxGeometry x="440" y="160" width="120" height="60" as="geometry" />
        </mxCell>
        <mxCell id="4ffHu6OWOmxB4uczi7nU-109" style="edgeStyle=orthogonalEdgeStyle;rounded=0;orthogonalLoop=1;jettySize=auto;html=1;exitX=0.5;exitY=1;exitDx=0;exitDy=0;" edge="1" parent="1" source="4ffHu6OWOmxB4uczi7nU-41" target="4ffHu6OWOmxB4uczi7nU-4">
          <mxGeometry relative="1" as="geometry" />
        </mxCell>
        <mxCell id="4ffHu6OWOmxB4uczi7nU-41" value="Начало" style="rounded=1;whiteSpace=wrap;html=1;" vertex="1" parent="1">
          <mxGeometry x="440" y="-340" width="120" height="60" as="geometry" />
        </mxCell>
        <mxCell id="4ffHu6OWOmxB4uczi7nU-58" value="&lt;div&gt;Изменение кол-ва &lt;br&gt;&lt;/div&gt;&lt;div&gt;проданного&lt;/div&gt;&lt;div&gt;товара&lt;br&gt;в &lt;b&gt;торговом зале&lt;/b&gt;&lt;/div&gt;" style="shape=parallelogram;perimeter=parallelogramPerimeter;whiteSpace=wrap;html=1;fixedSize=1;" vertex="1" parent="1">
          <mxGeometry x="340" y="260" width="120" height="60" as="geometry" />
        </mxCell>
        <mxCell id="4ffHu6OWOmxB4uczi7nU-115" style="edgeStyle=orthogonalEdgeStyle;rounded=0;orthogonalLoop=1;jettySize=auto;html=1;exitX=0.5;exitY=1;exitDx=0;exitDy=0;entryX=0.5;entryY=0;entryDx=0;entryDy=0;" edge="1" parent="1" source="4ffHu6OWOmxB4uczi7nU-60" target="4ffHu6OWOmxB4uczi7nU-114">
          <mxGeometry relative="1" as="geometry" />
        </mxCell>
        <mxCell id="4ffHu6OWOmxB4uczi7nU-60" value="Начало" style="rounded=1;whiteSpace=wrap;html=1;" vertex="1" parent="1">
          <mxGeometry x="-110" y="-430" width="120" height="60" as="geometry" />
        </mxCell>
        <mxCell id="4ffHu6OWOmxB4uczi7nU-65" style="edgeStyle=orthogonalEdgeStyle;rounded=0;orthogonalLoop=1;jettySize=auto;html=1;exitX=0.5;exitY=1;exitDx=0;exitDy=0;entryX=0.5;entryY=0;entryDx=0;entryDy=0;" edge="1" parent="1" source="4ffHu6OWOmxB4uczi7nU-61" target="4ffHu6OWOmxB4uczi7nU-63">
          <mxGeometry relative="1" as="geometry" />
        </mxCell>
        <mxCell id="4ffHu6OWOmxB4uczi7nU-61" value="Рассчет кол-ва товара в &lt;b&gt;чеке&lt;/b&gt;" style="shape=parallelogram;perimeter=parallelogramPerimeter;whiteSpace=wrap;html=1;fixedSize=1;" vertex="1" parent="1">
          <mxGeometry x="440" y="340" width="120" height="60" as="geometry" />
        </mxCell>
        <mxCell id="4ffHu6OWOmxB4uczi7nU-126" style="edgeStyle=orthogonalEdgeStyle;rounded=0;orthogonalLoop=1;jettySize=auto;html=1;exitX=0.5;exitY=1;exitDx=0;exitDy=0;entryX=0.5;entryY=0;entryDx=0;entryDy=0;" edge="1" parent="1" source="4ffHu6OWOmxB4uczi7nU-63" target="4ffHu6OWOmxB4uczi7nU-87">
          <mxGeometry relative="1" as="geometry" />
        </mxCell>
        <mxCell id="4ffHu6OWOmxB4uczi7nU-63" value="Рассчет новой стоимости с НДС&lt;br&gt; в &lt;b&gt;чеке&lt;/b&gt;" style="shape=parallelogram;perimeter=parallelogramPerimeter;whiteSpace=wrap;html=1;fixedSize=1;" vertex="1" parent="1">
          <mxGeometry x="440" y="430" width="120" height="60" as="geometry" />
        </mxCell>
        <mxCell id="4ffHu6OWOmxB4uczi7nU-74" style="edgeStyle=orthogonalEdgeStyle;rounded=0;orthogonalLoop=1;jettySize=auto;html=1;exitX=0.5;exitY=1;exitDx=0;exitDy=0;entryX=0.5;entryY=0;entryDx=0;entryDy=0;" edge="1" parent="1" source="4ffHu6OWOmxB4uczi7nU-66" target="4ffHu6OWOmxB4uczi7nU-73">
          <mxGeometry relative="1" as="geometry" />
        </mxCell>
        <mxCell id="4ffHu6OWOmxB4uczi7nU-66" value="Договор заключен" style="rounded=0;whiteSpace=wrap;html=1;" vertex="1" parent="1">
          <mxGeometry x="-110" y="-140" width="120" height="60" as="geometry" />
        </mxCell>
        <mxCell id="4ffHu6OWOmxB4uczi7nU-68" value="" style="endArrow=none;dashed=1;html=1;dashPattern=1 3;strokeWidth=2;rounded=0;entryX=0.5;entryY=1;entryDx=0;entryDy=0;" edge="1" parent="1" target="4ffHu6OWOmxB4uczi7nU-69">
          <mxGeometry width="50" height="50" relative="1" as="geometry">
            <mxPoint x="10" y="-110" as="sourcePoint" />
            <mxPoint x="60" y="-110" as="targetPoint" />
          </mxGeometry>
        </mxCell>
        <mxCell id="4ffHu6OWOmxB4uczi7nU-69" value="" style="shape=partialRectangle;whiteSpace=wrap;html=1;bottom=1;right=1;left=1;top=0;fillColor=none;routingCenterX=-0.5;rotation=90;" vertex="1" parent="1">
          <mxGeometry x="50" y="-120" width="60" height="20" as="geometry" />
        </mxCell>
        <mxCell id="4ffHu6OWOmxB4uczi7nU-70" value="FK: id подписавшего&lt;br&gt; договор сотрудника " style="text;html=1;align=center;verticalAlign=middle;resizable=0;points=[];autosize=1;strokeColor=none;fillColor=none;" vertex="1" parent="1">
          <mxGeometry x="85" y="-130" width="140" height="40" as="geometry" />
        </mxCell>
        <mxCell id="4ffHu6OWOmxB4uczi7nU-84" style="edgeStyle=orthogonalEdgeStyle;rounded=0;orthogonalLoop=1;jettySize=auto;html=1;exitX=0.5;exitY=1;exitDx=0;exitDy=0;entryX=0.5;entryY=0;entryDx=0;entryDy=0;" edge="1" parent="1" source="4ffHu6OWOmxB4uczi7nU-73" target="4ffHu6OWOmxB4uczi7nU-80">
          <mxGeometry relative="1" as="geometry" />
        </mxCell>
        <mxCell id="4ffHu6OWOmxB4uczi7nU-73" value="Поставка&lt;br&gt;добавлена" style="rounded=0;whiteSpace=wrap;html=1;" vertex="1" parent="1">
          <mxGeometry x="-110" y="-50" width="120" height="60" as="geometry" />
        </mxCell>
        <mxCell id="4ffHu6OWOmxB4uczi7nU-77" value="" style="endArrow=none;dashed=1;html=1;dashPattern=1 3;strokeWidth=2;rounded=0;entryX=0.5;entryY=1;entryDx=0;entryDy=0;" edge="1" parent="1" target="4ffHu6OWOmxB4uczi7nU-78">
          <mxGeometry width="50" height="50" relative="1" as="geometry">
            <mxPoint x="10" y="-20" as="sourcePoint" />
            <mxPoint x="60" y="-20" as="targetPoint" />
          </mxGeometry>
        </mxCell>
        <mxCell id="4ffHu6OWOmxB4uczi7nU-78" value="" style="shape=partialRectangle;whiteSpace=wrap;html=1;bottom=1;right=1;left=1;top=0;fillColor=none;routingCenterX=-0.5;rotation=90;" vertex="1" parent="1">
          <mxGeometry x="50" y="-30" width="60" height="20" as="geometry" />
        </mxCell>
        <mxCell id="4ffHu6OWOmxB4uczi7nU-79" value="FK: номер договора&lt;br&gt;Кол-во категорий и стоимость&lt;br&gt;определены &lt;br&gt;заранее" style="text;html=1;align=center;verticalAlign=middle;resizable=0;points=[];autosize=1;strokeColor=none;fillColor=none;" vertex="1" parent="1">
          <mxGeometry x="65" y="-55" width="190" height="70" as="geometry" />
        </mxCell>
        <mxCell id="4ffHu6OWOmxB4uczi7nU-97" style="edgeStyle=orthogonalEdgeStyle;rounded=0;orthogonalLoop=1;jettySize=auto;html=1;exitX=0.5;exitY=1;exitDx=0;exitDy=0;entryX=0.5;entryY=0;entryDx=0;entryDy=0;" edge="1" parent="1" source="4ffHu6OWOmxB4uczi7nU-80" target="4ffHu6OWOmxB4uczi7nU-93">
          <mxGeometry relative="1" as="geometry" />
        </mxCell>
        <mxCell id="4ffHu6OWOmxB4uczi7nU-80" value="Категории поставок&lt;br&gt;добавлены" style="rounded=0;whiteSpace=wrap;html=1;" vertex="1" parent="1">
          <mxGeometry x="-110" y="40" width="120" height="60" as="geometry" />
        </mxCell>
        <mxCell id="4ffHu6OWOmxB4uczi7nU-81" value="" style="endArrow=none;dashed=1;html=1;dashPattern=1 3;strokeWidth=2;rounded=0;entryX=0.5;entryY=1;entryDx=0;entryDy=0;" edge="1" parent="1" target="4ffHu6OWOmxB4uczi7nU-82">
          <mxGeometry width="50" height="50" relative="1" as="geometry">
            <mxPoint x="10" y="70" as="sourcePoint" />
            <mxPoint x="60" y="70" as="targetPoint" />
          </mxGeometry>
        </mxCell>
        <mxCell id="4ffHu6OWOmxB4uczi7nU-82" value="" style="shape=partialRectangle;whiteSpace=wrap;html=1;bottom=1;right=1;left=1;top=0;fillColor=none;routingCenterX=-0.5;rotation=90;" vertex="1" parent="1">
          <mxGeometry x="50" y="60" width="60" height="20" as="geometry" />
        </mxCell>
        <mxCell id="4ffHu6OWOmxB4uczi7nU-83" value="FK: номер партии&lt;br&gt;FK: номер торгового &lt;br&gt;зала&lt;br&gt;Кол-во категорий &lt;br&gt;определено заранее" style="text;html=1;align=center;verticalAlign=middle;resizable=0;points=[];autosize=1;strokeColor=none;fillColor=none;" vertex="1" parent="1">
          <mxGeometry x="85" y="25" width="140" height="90" as="geometry" />
        </mxCell>
        <mxCell id="4ffHu6OWOmxB4uczi7nU-85" value="Запись номера чека&lt;br&gt;в &lt;b&gt;историю &lt;br&gt;заказов&lt;/b&gt; клиента" style="shape=parallelogram;perimeter=parallelogramPerimeter;whiteSpace=wrap;html=1;fixedSize=1;" vertex="1" parent="1">
          <mxGeometry x="580" y="280" width="120" height="60" as="geometry" />
        </mxCell>
        <mxCell id="4ffHu6OWOmxB4uczi7nU-87" value="Конец" style="rounded=1;whiteSpace=wrap;html=1;" vertex="1" parent="1">
          <mxGeometry x="440" y="525" width="120" height="60" as="geometry" />
        </mxCell>
        <mxCell id="4ffHu6OWOmxB4uczi7nU-91" style="edgeStyle=orthogonalEdgeStyle;rounded=0;orthogonalLoop=1;jettySize=auto;html=1;exitX=0.5;exitY=1;exitDx=0;exitDy=0;entryX=0.5;entryY=0;entryDx=0;entryDy=0;" edge="1" parent="1" source="4ffHu6OWOmxB4uczi7nU-89" target="4ffHu6OWOmxB4uczi7nU-66">
          <mxGeometry relative="1" as="geometry" />
        </mxCell>
        <mxCell id="4ffHu6OWOmxB4uczi7nU-89" value="Торговый зал&lt;br&gt;добавлен" style="rounded=0;whiteSpace=wrap;html=1;" vertex="1" parent="1">
          <mxGeometry x="-110" y="-240" width="120" height="60" as="geometry" />
        </mxCell>
        <mxCell id="4ffHu6OWOmxB4uczi7nU-92" value="FK: id менеджера" style="text;html=1;align=center;verticalAlign=middle;resizable=0;points=[];autosize=1;strokeColor=none;fillColor=none;" vertex="1" parent="1">
          <mxGeometry x="85" y="-225" width="120" height="30" as="geometry" />
        </mxCell>
        <mxCell id="4ffHu6OWOmxB4uczi7nU-99" style="edgeStyle=orthogonalEdgeStyle;rounded=0;orthogonalLoop=1;jettySize=auto;html=1;exitX=0.5;exitY=1;exitDx=0;exitDy=0;entryX=0.5;entryY=0;entryDx=0;entryDy=0;" edge="1" parent="1" source="4ffHu6OWOmxB4uczi7nU-93" target="4ffHu6OWOmxB4uczi7nU-98">
          <mxGeometry relative="1" as="geometry" />
        </mxCell>
        <mxCell id="4ffHu6OWOmxB4uczi7nU-93" value="Видеотехника&lt;br&gt;добавлена" style="rounded=0;whiteSpace=wrap;html=1;" vertex="1" parent="1">
          <mxGeometry x="-110" y="130" width="120" height="60" as="geometry" />
        </mxCell>
        <mxCell id="4ffHu6OWOmxB4uczi7nU-94" value="" style="endArrow=none;dashed=1;html=1;dashPattern=1 3;strokeWidth=2;rounded=0;entryX=0.5;entryY=1;entryDx=0;entryDy=0;" edge="1" parent="1" target="4ffHu6OWOmxB4uczi7nU-95">
          <mxGeometry width="50" height="50" relative="1" as="geometry">
            <mxPoint x="10" y="160" as="sourcePoint" />
            <mxPoint x="60" y="160" as="targetPoint" />
          </mxGeometry>
        </mxCell>
        <mxCell id="4ffHu6OWOmxB4uczi7nU-95" value="" style="shape=partialRectangle;whiteSpace=wrap;html=1;bottom=1;right=1;left=1;top=0;fillColor=none;routingCenterX=-0.5;rotation=90;" vertex="1" parent="1">
          <mxGeometry x="50" y="150" width="60" height="20" as="geometry" />
        </mxCell>
        <mxCell id="4ffHu6OWOmxB4uczi7nU-96" value="FK: номер категории&lt;br&gt;&lt;div&gt;FK: номер чека - пустой&lt;br&gt;Кол-во единиц определено&lt;br&gt;заранее&lt;/div&gt;" style="text;html=1;align=center;verticalAlign=middle;resizable=0;points=[];autosize=1;strokeColor=none;fillColor=none;" vertex="1" parent="1">
          <mxGeometry x="70" y="125" width="170" height="70" as="geometry" />
        </mxCell>
        <mxCell id="4ffHu6OWOmxB4uczi7nU-98" value="Конец" style="rounded=1;whiteSpace=wrap;html=1;" vertex="1" parent="1">
          <mxGeometry x="-110" y="220" width="120" height="60" as="geometry" />
        </mxCell>
        <mxCell id="4ffHu6OWOmxB4uczi7nU-110" style="edgeStyle=orthogonalEdgeStyle;rounded=0;orthogonalLoop=1;jettySize=auto;html=1;exitX=0.5;exitY=1;exitDx=0;exitDy=0;entryX=0.5;entryY=0;entryDx=0;entryDy=0;" edge="1" parent="1" source="4ffHu6OWOmxB4uczi7nU-100" target="4ffHu6OWOmxB4uczi7nU-106">
          <mxGeometry relative="1" as="geometry" />
        </mxCell>
        <mxCell id="4ffHu6OWOmxB4uczi7nU-100" value="Отчет создан" style="rounded=0;whiteSpace=wrap;html=1;" vertex="1" parent="1">
          <mxGeometry x="1257" y="-125.03999999999999" width="120" height="60" as="geometry" />
        </mxCell>
        <mxCell id="4ffHu6OWOmxB4uczi7nU-101" style="edgeStyle=orthogonalEdgeStyle;rounded=0;orthogonalLoop=1;jettySize=auto;html=1;exitX=0.5;exitY=1;exitDx=0;exitDy=0;entryX=0.5;entryY=0;entryDx=0;entryDy=0;" edge="1" parent="1" source="4ffHu6OWOmxB4uczi7nU-102" target="4ffHu6OWOmxB4uczi7nU-104">
          <mxGeometry relative="1" as="geometry" />
        </mxCell>
        <mxCell id="4ffHu6OWOmxB4uczi7nU-102" value="Начало" style="rounded=1;whiteSpace=wrap;html=1;" vertex="1" parent="1">
          <mxGeometry x="1050" y="-305.04" width="120" height="60" as="geometry" />
        </mxCell>
        <mxCell id="4ffHu6OWOmxB4uczi7nU-103" style="edgeStyle=orthogonalEdgeStyle;rounded=0;orthogonalLoop=1;jettySize=auto;html=1;exitX=1;exitY=0.5;exitDx=0;exitDy=0;entryX=0.5;entryY=0;entryDx=0;entryDy=0;" edge="1" parent="1" source="4ffHu6OWOmxB4uczi7nU-104" target="4ffHu6OWOmxB4uczi7nU-100">
          <mxGeometry relative="1" as="geometry" />
        </mxCell>
        <mxCell id="4ffHu6OWOmxB4uczi7nU-104" value="&lt;div&gt;Прошло ли 3 месяца&lt;/div&gt;&lt;div&gt;с даты последнего отчета?&lt;/div&gt;" style="rhombus;whiteSpace=wrap;html=1;" vertex="1" parent="1">
          <mxGeometry x="1012.5" y="-195.04" width="195" height="75.04" as="geometry" />
        </mxCell>
        <mxCell id="4ffHu6OWOmxB4uczi7nU-129" style="edgeStyle=orthogonalEdgeStyle;rounded=0;orthogonalLoop=1;jettySize=auto;html=1;exitX=0.5;exitY=1;exitDx=0;exitDy=0;entryX=0.5;entryY=0;entryDx=0;entryDy=0;" edge="1" parent="1" source="4ffHu6OWOmxB4uczi7nU-106" target="4ffHu6OWOmxB4uczi7nU-128">
          <mxGeometry relative="1" as="geometry" />
        </mxCell>
        <mxCell id="4ffHu6OWOmxB4uczi7nU-106" value="Обновление &lt;br&gt;номера отчета&lt;b&gt; &lt;br&gt;чека&lt;/b&gt;" style="shape=parallelogram;perimeter=parallelogramPerimeter;whiteSpace=wrap;html=1;fixedSize=1;" vertex="1" parent="1">
          <mxGeometry x="1257" y="-20" width="120" height="60" as="geometry" />
        </mxCell>
        <mxCell id="4ffHu6OWOmxB4uczi7nU-107" value="Нет" style="text;html=1;align=center;verticalAlign=middle;resizable=0;points=[];autosize=1;strokeColor=none;fillColor=none;" vertex="1" parent="1">
          <mxGeometry x="960" y="-185.04" width="40" height="30" as="geometry" />
        </mxCell>
        <mxCell id="4ffHu6OWOmxB4uczi7nU-108" value="Да" style="text;html=1;align=center;verticalAlign=middle;resizable=0;points=[];autosize=1;strokeColor=none;fillColor=none;" vertex="1" parent="1">
          <mxGeometry x="1217" y="-185.04" width="40" height="30" as="geometry" />
        </mxCell>
        <mxCell id="4ffHu6OWOmxB4uczi7nU-111" value="" style="endArrow=none;dashed=1;html=1;dashPattern=1 3;strokeWidth=2;rounded=0;entryX=0.5;entryY=1;entryDx=0;entryDy=0;" edge="1" parent="1" target="4ffHu6OWOmxB4uczi7nU-112">
          <mxGeometry width="50" height="50" relative="1" as="geometry">
            <mxPoint x="1377" y="-95" as="sourcePoint" />
            <mxPoint x="1427" y="-95" as="targetPoint" />
          </mxGeometry>
        </mxCell>
        <mxCell id="4ffHu6OWOmxB4uczi7nU-112" value="" style="shape=partialRectangle;whiteSpace=wrap;html=1;bottom=1;right=1;left=1;top=0;fillColor=none;routingCenterX=-0.5;rotation=90;" vertex="1" parent="1">
          <mxGeometry x="1417" y="-105" width="60" height="20" as="geometry" />
        </mxCell>
        <mxCell id="4ffHu6OWOmxB4uczi7nU-113" value="FK: id сотрудника" style="text;html=1;align=center;verticalAlign=middle;resizable=0;points=[];autosize=1;strokeColor=none;fillColor=none;" vertex="1" parent="1">
          <mxGeometry x="1430" y="-110" width="120" height="30" as="geometry" />
        </mxCell>
        <mxCell id="4ffHu6OWOmxB4uczi7nU-116" style="edgeStyle=orthogonalEdgeStyle;rounded=0;orthogonalLoop=1;jettySize=auto;html=1;exitX=0.5;exitY=1;exitDx=0;exitDy=0;entryX=0.5;entryY=0;entryDx=0;entryDy=0;" edge="1" parent="1" source="4ffHu6OWOmxB4uczi7nU-114" target="4ffHu6OWOmxB4uczi7nU-89">
          <mxGeometry relative="1" as="geometry" />
        </mxCell>
        <mxCell id="4ffHu6OWOmxB4uczi7nU-114" value="Сотрудник добавлен" style="rounded=0;whiteSpace=wrap;html=1;" vertex="1" parent="1">
          <mxGeometry x="-110" y="-340" width="120" height="60" as="geometry" />
        </mxCell>
        <mxCell id="4ffHu6OWOmxB4uczi7nU-117" value="" style="endArrow=none;dashed=1;html=1;dashPattern=1 3;strokeWidth=2;rounded=0;entryX=0.5;entryY=1;entryDx=0;entryDy=0;" edge="1" parent="1" target="4ffHu6OWOmxB4uczi7nU-118">
          <mxGeometry width="50" height="50" relative="1" as="geometry">
            <mxPoint x="560" y="-100" as="sourcePoint" />
            <mxPoint x="610" y="-100" as="targetPoint" />
          </mxGeometry>
        </mxCell>
        <mxCell id="4ffHu6OWOmxB4uczi7nU-118" value="" style="shape=partialRectangle;whiteSpace=wrap;html=1;bottom=1;right=1;left=1;top=0;fillColor=none;routingCenterX=-0.5;rotation=90;" vertex="1" parent="1">
          <mxGeometry x="600" y="-110" width="60" height="20" as="geometry" />
        </mxCell>
        <mxCell id="4ffHu6OWOmxB4uczi7nU-119" value="FK: id клиента" style="text;html=1;align=center;verticalAlign=middle;resizable=0;points=[];autosize=1;strokeColor=none;fillColor=none;" vertex="1" parent="1">
          <mxGeometry x="645" y="-115" width="100" height="30" as="geometry" />
        </mxCell>
        <mxCell id="4ffHu6OWOmxB4uczi7nU-136" style="edgeStyle=orthogonalEdgeStyle;rounded=0;orthogonalLoop=1;jettySize=auto;html=1;exitX=0.5;exitY=0;exitDx=0;exitDy=0;entryX=0;entryY=0.5;entryDx=0;entryDy=0;endArrow=none;startFill=0;" edge="1" parent="1" source="4ffHu6OWOmxB4uczi7nU-120" target="4ffHu6OWOmxB4uczi7nU-104">
          <mxGeometry relative="1" as="geometry">
            <Array as="points">
              <mxPoint x="1317" y="260" />
              <mxPoint x="900" y="260" />
              <mxPoint x="900" y="-157" />
            </Array>
          </mxGeometry>
        </mxCell>
        <mxCell id="4ffHu6OWOmxB4uczi7nU-120" value="Конец" style="rounded=1;whiteSpace=wrap;html=1;" vertex="1" parent="1">
          <mxGeometry x="1257" y="290" width="120" height="60" as="geometry" />
        </mxCell>
        <mxCell id="4ffHu6OWOmxB4uczi7nU-133" style="edgeStyle=orthogonalEdgeStyle;rounded=0;orthogonalLoop=1;jettySize=auto;html=1;exitX=0.5;exitY=1;exitDx=0;exitDy=0;entryX=0.5;entryY=0;entryDx=0;entryDy=0;" edge="1" parent="1" source="4ffHu6OWOmxB4uczi7nU-128" target="4ffHu6OWOmxB4uczi7nU-131">
          <mxGeometry relative="1" as="geometry" />
        </mxCell>
        <mxCell id="4ffHu6OWOmxB4uczi7nU-128" value="Подсчёт кол-ва&lt;br&gt;товаров в &lt;b&gt;отчёте&lt;/b&gt;" style="shape=parallelogram;perimeter=parallelogramPerimeter;whiteSpace=wrap;html=1;fixedSize=1;" vertex="1" parent="1">
          <mxGeometry x="1257" y="70" width="120" height="60" as="geometry" />
        </mxCell>
        <mxCell id="4ffHu6OWOmxB4uczi7nU-132" style="edgeStyle=orthogonalEdgeStyle;rounded=0;orthogonalLoop=1;jettySize=auto;html=1;exitX=0.5;exitY=1;exitDx=0;exitDy=0;entryX=0.5;entryY=0;entryDx=0;entryDy=0;" edge="1" parent="1" source="4ffHu6OWOmxB4uczi7nU-131" target="4ffHu6OWOmxB4uczi7nU-120">
          <mxGeometry relative="1" as="geometry" />
        </mxCell>
        <mxCell id="4ffHu6OWOmxB4uczi7nU-131" value="Подсчёт доходов &lt;br&gt;в &lt;b&gt;отчёте&lt;/b&gt;" style="shape=parallelogram;perimeter=parallelogramPerimeter;whiteSpace=wrap;html=1;fixedSize=1;" vertex="1" parent="1">
          <mxGeometry x="1257" y="170" width="120" height="60" as="geometry" />
        </mxCell>
      </root>
    </mxGraphModel>
  </diagram>
</mxfile>
